<svg id="svg" version="1.1" xmlns="http://www.w3.org/2000/svg" xmlns:xlink="http://www.w3.org/1999/xlink" width="400" height="34.20342034203421" viewBox="0, 0, 400,34.20342034203421"><g id="svgg"><path id="path0" d="M0.000 17.083 L 0.000 34.167 79.944 34.167 C 123.914 34.167,159.854 34.132,159.811 34.089 C 159.768 34.046,157.487 33.928,154.742 33.826 C 148.006 33.575,143.582 33.371,140.583 33.172 C 139.208 33.081,136.958 32.932,135.583 32.841 C 132.148 32.613,129.558 32.399,126.417 32.083 C 123.890 31.828,122.577 31.704,118.500 31.333 C 117.537 31.245,116.150 31.095,115.417 30.998 C 114.683 30.902,113.521 30.753,112.833 30.667 C 112.146 30.581,111.021 30.438,110.333 30.350 C 109.646 30.262,108.408 30.109,107.583 30.009 C 106.758 29.910,105.979 29.790,105.851 29.744 C 105.724 29.697,104.936 29.578,104.101 29.479 C 102.579 29.299,101.611 29.158,99.750 28.846 C 99.200 28.754,98.225 28.595,97.583 28.493 C 94.875 28.061,93.081 27.756,90.250 27.246 C 86.045 26.488,83.843 26.056,80.083 25.253 C 79.350 25.097,78.375 24.894,77.917 24.803 C 77.458 24.712,76.746 24.565,76.333 24.478 C 75.921 24.390,75.246 24.250,74.833 24.167 C 74.061 24.011,73.141 23.812,71.833 23.517 C 71.421 23.424,70.633 23.223,70.083 23.071 C 68.955 22.759,68.149 22.561,67.417 22.416 C 67.142 22.362,66.617 22.240,66.250 22.145 C 64.817 21.774,64.333 21.655,61.917 21.081 C 60.542 20.754,58.892 20.334,58.250 20.148 C 57.608 19.962,56.783 19.730,56.417 19.632 C 55.630 19.423,55.221 19.305,53.333 18.742 C 52.554 18.510,51.617 18.239,51.250 18.141 C 50.883 18.042,50.396 17.904,50.167 17.833 C 49.938 17.763,49.413 17.613,49.000 17.500 C 48.587 17.387,48.063 17.237,47.833 17.167 C 47.604 17.096,47.079 16.945,46.667 16.830 C 44.948 16.352,44.726 16.283,44.203 16.063 C 43.902 15.937,43.544 15.833,43.409 15.833 C 43.273 15.833,43.032 15.765,42.873 15.682 C 42.714 15.598,41.008 15.033,39.083 14.425 C 37.158 13.816,35.453 13.247,35.294 13.159 C 35.135 13.072,34.890 13.000,34.750 13.000 C 34.610 13.000,34.365 12.933,34.206 12.851 C 34.047 12.768,32.754 12.323,31.333 11.862 C 28.700 11.006,26.516 10.256,25.917 10.002 C 25.733 9.924,25.021 9.661,24.333 9.417 C 23.646 9.173,22.933 8.908,22.750 8.828 C 22.567 8.749,22.079 8.574,21.667 8.441 C 21.254 8.307,20.617 8.084,20.250 7.944 C 19.883 7.804,18.608 7.342,17.417 6.916 C 16.225 6.491,15.081 6.073,14.875 5.988 C 14.669 5.903,14.331 5.766,14.125 5.684 C 13.919 5.601,13.487 5.425,13.167 5.291 C 12.846 5.157,11.946 4.805,11.167 4.508 C 10.387 4.211,9.600 3.907,9.417 3.833 C 9.233 3.759,8.258 3.380,7.250 2.992 C 6.242 2.603,5.192 2.191,4.917 2.076 C 4.642 1.961,3.498 1.509,2.375 1.071 C 1.252 0.633,0.333 0.213,0.333 0.137 C 0.333 0.062,0.258 0.000,0.167 0.000 C 0.057 0.000,0.000 5.806,0.000 17.083 M399.472 0.163 C 399.442 0.253,399.004 0.411,398.500 0.514 C 397.996 0.616,397.321 0.760,397.000 0.833 C 396.679 0.907,396.004 1.057,395.500 1.167 C 394.996 1.277,394.283 1.438,393.917 1.526 C 393.550 1.613,392.950 1.752,392.583 1.833 C 392.217 1.915,391.617 2.052,391.250 2.137 C 390.883 2.223,389.871 2.458,389.000 2.659 C 388.129 2.861,387.154 3.090,386.833 3.169 C 386.261 3.310,385.239 3.544,383.917 3.838 C 383.550 3.920,382.425 4.179,381.417 4.415 C 380.408 4.650,379.246 4.920,378.833 5.015 C 378.421 5.110,377.821 5.254,377.500 5.336 C 377.179 5.417,376.692 5.529,376.417 5.584 C 376.142 5.639,375.598 5.756,375.208 5.842 C 374.819 5.929,374.181 6.069,373.792 6.153 C 373.402 6.237,372.558 6.428,371.917 6.577 C 370.576 6.888,367.895 7.480,366.917 7.682 C 366.550 7.757,365.837 7.904,365.333 8.007 C 364.255 8.229,363.288 8.436,362.250 8.667 C 361.837 8.758,361.181 8.901,360.792 8.983 C 360.402 9.066,359.558 9.256,358.917 9.406 C 358.275 9.555,357.375 9.753,356.917 9.846 C 356.458 9.939,355.783 10.083,355.417 10.167 C 355.050 10.250,354.375 10.397,353.917 10.492 C 353.458 10.587,352.783 10.731,352.417 10.812 C 352.050 10.893,350.813 11.163,349.667 11.413 C 348.521 11.663,347.283 11.936,346.917 12.020 C 346.284 12.165,345.463 12.324,343.583 12.668 C 342.470 12.871,341.196 13.121,340.583 13.256 C 339.936 13.398,336.968 14.003,336.000 14.189 C 335.587 14.268,334.856 14.408,334.375 14.500 C 333.894 14.592,333.106 14.742,332.625 14.833 C 332.144 14.925,331.375 15.075,330.917 15.166 C 330.458 15.257,329.671 15.404,329.167 15.493 C 328.662 15.581,327.725 15.773,327.083 15.918 C 326.004 16.162,325.431 16.278,323.292 16.683 C 322.856 16.766,322.125 16.908,321.667 17.000 C 320.424 17.249,319.366 17.450,318.250 17.652 C 317.700 17.752,316.875 17.904,316.417 17.992 C 315.958 18.079,314.946 18.270,314.167 18.416 C 313.387 18.562,312.337 18.761,311.833 18.859 C 311.329 18.956,310.542 19.096,310.083 19.169 C 309.625 19.242,308.762 19.391,308.167 19.500 C 307.571 19.609,306.708 19.760,306.250 19.837 C 305.792 19.914,305.192 20.026,304.917 20.087 C 304.201 20.243,301.094 20.828,299.917 21.028 C 299.367 21.121,298.523 21.266,298.042 21.349 C 297.560 21.432,296.773 21.568,296.292 21.651 C 295.424 21.801,293.944 22.067,292.500 22.333 C 292.087 22.409,291.235 22.554,290.606 22.654 C 289.976 22.755,289.400 22.875,289.325 22.922 C 289.250 22.968,288.639 23.086,287.969 23.183 C 286.315 23.424,284.775 23.658,283.625 23.845 C 283.098 23.930,282.235 24.069,281.708 24.152 C 279.190 24.553,276.946 24.915,274.956 25.242 C 273.374 25.502,272.248 25.668,269.667 26.020 C 268.979 26.113,267.967 26.255,267.417 26.333 C 266.867 26.412,265.854 26.553,265.167 26.647 C 264.479 26.741,263.429 26.892,262.833 26.983 C 261.376 27.205,258.221 27.644,256.583 27.853 C 255.850 27.947,254.688 28.096,254.000 28.184 C 253.313 28.272,252.188 28.414,251.500 28.500 C 250.813 28.586,249.650 28.736,248.917 28.833 C 246.954 29.094,245.292 29.292,243.417 29.488 C 242.500 29.584,241.563 29.702,241.333 29.750 C 241.104 29.798,240.167 29.917,239.250 30.014 C 238.333 30.111,236.946 30.259,236.167 30.342 C 232.243 30.763,231.448 30.845,229.792 30.999 C 228.806 31.091,227.194 31.239,226.208 31.328 C 225.223 31.416,223.592 31.563,222.583 31.654 C 221.575 31.745,220.487 31.859,220.167 31.907 C 219.529 32.003,216.287 32.263,212.500 32.522 C 202.692 33.193,196.402 33.489,184.840 33.821 C 181.132 33.927,178.063 34.048,178.021 34.090 C 177.979 34.132,227.907 34.167,288.972 34.167 L 400.000 34.167 400.000 17.083 C 400.000 2.456,399.966 0.000,399.764 0.000 C 399.634 0.000,399.503 0.074,399.472 0.163 " stroke="none" fill="#fbfbfb" fill-rule="evenodd"></path><path id="path1" d="M1.000 0.076 C 1.000 0.117,1.281 0.273,1.625 0.423 C 1.969 0.572,2.380 0.763,2.539 0.847 C 2.699 0.931,2.980 1.000,3.164 1.000 C 3.349 1.000,3.500 1.075,3.500 1.167 C 3.500 1.258,3.672 1.333,3.883 1.333 C 4.094 1.333,4.338 1.399,4.425 1.479 C 4.512 1.560,5.033 1.790,5.583 1.992 C 6.133 2.194,6.808 2.457,7.083 2.576 C 7.358 2.696,7.846 2.886,8.167 2.997 C 8.753 3.201,9.109 3.339,9.958 3.689 C 10.210 3.793,10.604 3.951,10.833 4.040 C 11.063 4.129,11.475 4.298,11.750 4.416 C 12.025 4.534,12.512 4.722,12.833 4.832 C 13.154 4.943,13.604 5.111,13.833 5.206 C 14.063 5.300,14.400 5.433,14.583 5.500 C 14.767 5.567,15.104 5.701,15.333 5.798 C 15.563 5.894,16.313 6.173,17.000 6.417 C 17.688 6.661,18.475 6.942,18.750 7.041 C 19.025 7.139,19.321 7.283,19.408 7.360 C 19.495 7.437,19.735 7.500,19.940 7.500 C 20.146 7.500,20.360 7.575,20.417 7.667 C 20.473 7.758,20.698 7.833,20.917 7.833 C 21.135 7.833,21.360 7.908,21.417 8.000 C 21.473 8.092,21.688 8.167,21.893 8.167 C 22.099 8.167,22.338 8.233,22.425 8.313 C 22.512 8.394,22.883 8.553,23.250 8.666 C 23.617 8.780,24.142 8.970,24.417 9.089 C 24.692 9.208,25.404 9.467,26.000 9.664 C 26.596 9.861,27.233 10.087,27.417 10.167 C 27.930 10.390,30.549 11.292,32.583 11.948 C 33.592 12.272,34.567 12.596,34.750 12.666 C 34.933 12.737,35.983 13.080,37.083 13.429 C 38.183 13.778,39.155 14.124,39.242 14.198 C 39.329 14.273,39.568 14.333,39.773 14.333 C 39.979 14.333,40.193 14.408,40.250 14.500 C 40.307 14.592,40.569 14.667,40.833 14.667 C 41.098 14.667,41.360 14.742,41.417 14.833 C 41.473 14.925,41.688 15.000,41.893 15.000 C 42.099 15.000,42.338 15.061,42.425 15.135 C 42.512 15.209,43.296 15.480,44.167 15.737 C 45.038 15.994,45.880 16.271,46.039 16.352 C 46.199 16.433,46.456 16.500,46.611 16.500 C 46.926 16.500,47.929 16.796,48.373 17.020 C 48.532 17.101,48.810 17.167,48.990 17.167 C 49.170 17.167,49.490 17.234,49.700 17.316 C 49.911 17.398,50.421 17.557,50.833 17.669 C 51.859 17.947,53.181 18.352,53.583 18.510 C 53.767 18.582,54.104 18.679,54.333 18.726 C 54.721 18.804,55.180 18.928,56.542 19.324 C 57.669 19.651,58.298 19.824,59.917 20.250 C 62.236 20.860,62.842 21.008,63.417 21.105 C 63.692 21.151,64.067 21.254,64.250 21.333 C 64.433 21.413,64.808 21.517,65.083 21.565 C 66.434 21.800,71.949 23.134,73.095 23.502 C 73.377 23.593,73.830 23.667,74.103 23.667 C 74.377 23.667,74.671 23.734,74.758 23.817 C 74.845 23.900,75.254 24.008,75.667 24.057 C 76.079 24.107,76.792 24.223,77.250 24.316 C 80.191 24.912,81.329 25.162,81.928 25.344 C 82.210 25.430,82.664 25.500,82.937 25.500 C 83.210 25.500,83.505 25.567,83.592 25.650 C 83.679 25.732,84.050 25.840,84.417 25.890 C 84.783 25.940,85.533 26.066,86.083 26.170 C 87.818 26.499,88.720 26.659,89.750 26.819 C 90.300 26.905,91.425 27.100,92.250 27.252 C 94.816 27.725,96.357 27.989,98.583 28.339 C 99.225 28.440,100.162 28.590,100.667 28.672 C 101.171 28.754,102.108 28.895,102.750 28.986 C 103.392 29.076,104.779 29.272,105.833 29.421 C 109.441 29.931,110.085 30.018,111.417 30.180 C 112.150 30.269,113.313 30.414,114.000 30.502 C 116.396 30.808,118.655 31.030,124.068 31.492 C 125.159 31.585,126.172 31.698,126.318 31.744 C 126.653 31.849,130.081 32.161,132.917 32.346 C 134.108 32.423,136.283 32.567,137.750 32.665 C 144.141 33.093,145.654 33.178,149.750 33.339 C 165.643 33.962,191.112 33.654,205.500 32.664 C 206.921 32.566,209.133 32.421,210.417 32.341 C 216.554 31.958,218.194 31.836,218.326 31.755 C 218.404 31.706,219.432 31.587,220.609 31.490 C 225.915 31.053,231.505 30.534,234.750 30.178 C 235.575 30.087,236.963 29.937,237.833 29.843 C 238.704 29.749,239.604 29.635,239.833 29.589 C 240.063 29.544,241.037 29.423,242.000 29.320 C 245.436 28.954,247.145 28.753,250.500 28.321 C 251.188 28.232,252.313 28.090,253.000 28.005 C 255.924 27.642,256.773 27.526,257.167 27.432 C 257.396 27.377,258.258 27.253,259.083 27.156 C 259.908 27.058,261.108 26.903,261.750 26.809 C 263.926 26.493,264.914 26.354,266.250 26.175 C 267.558 26.000,269.095 25.787,271.083 25.503 C 271.633 25.425,272.712 25.278,273.480 25.177 C 274.248 25.076,274.937 24.956,275.011 24.910 C 275.085 24.864,275.694 24.747,276.364 24.650 C 277.957 24.419,279.510 24.183,280.750 23.984 C 281.832 23.810,283.171 23.600,284.750 23.355 C 286.369 23.104,287.822 22.857,289.333 22.577 C 291.410 22.191,292.471 22.001,293.500 21.830 C 294.004 21.746,294.867 21.598,295.417 21.500 C 295.967 21.402,296.829 21.254,297.333 21.171 C 297.837 21.088,298.587 20.950,299.000 20.864 C 299.412 20.778,300.425 20.582,301.250 20.428 C 302.075 20.274,303.162 20.069,303.667 19.973 C 304.171 19.876,304.996 19.728,305.500 19.643 C 308.156 19.196,308.533 19.130,311.042 18.675 C 311.523 18.587,312.392 18.437,312.974 18.341 C 313.555 18.246,314.091 18.130,314.163 18.086 C 314.236 18.041,314.810 17.922,315.439 17.822 C 316.655 17.628,317.940 17.400,319.167 17.160 C 319.579 17.079,320.367 16.929,320.917 16.827 C 322.537 16.524,323.385 16.361,323.917 16.247 C 324.192 16.188,325.279 15.965,326.333 15.750 C 327.387 15.535,328.475 15.311,328.750 15.252 C 329.500 15.090,330.997 14.831,331.750 14.734 C 332.117 14.687,332.567 14.581,332.750 14.500 C 332.933 14.419,333.383 14.315,333.750 14.270 C 334.117 14.225,334.754 14.117,335.167 14.030 C 335.949 13.864,338.813 13.288,340.250 13.007 C 340.708 12.918,341.308 12.800,341.583 12.745 C 342.778 12.508,343.807 12.310,344.583 12.167 C 346.762 11.765,347.911 11.519,349.083 11.203 C 349.450 11.104,350.200 10.939,350.750 10.835 C 351.300 10.731,351.980 10.576,352.262 10.490 C 352.543 10.404,352.997 10.333,353.270 10.333 C 353.543 10.333,353.838 10.266,353.925 10.184 C 354.012 10.101,354.383 9.994,354.750 9.945 C 355.573 9.836,356.656 9.609,359.667 8.915 C 360.354 8.757,361.235 8.561,361.625 8.480 C 362.015 8.399,362.690 8.255,363.125 8.159 C 364.319 7.896,365.515 7.663,366.167 7.566 C 366.488 7.518,366.900 7.415,367.083 7.337 C 367.267 7.258,367.642 7.153,367.917 7.103 C 368.192 7.053,368.942 6.896,369.583 6.753 C 371.134 6.408,372.263 6.162,373.125 5.982 C 373.515 5.900,374.171 5.758,374.583 5.667 C 374.996 5.575,375.671 5.425,376.083 5.333 C 377.777 4.957,378.288 4.845,379.053 4.679 C 379.494 4.584,379.921 4.466,380.000 4.417 C 380.079 4.368,380.506 4.249,380.947 4.154 C 381.389 4.059,382.087 3.906,382.500 3.814 C 382.912 3.723,383.512 3.610,383.833 3.564 C 384.154 3.517,384.567 3.414,384.750 3.334 C 384.933 3.255,385.308 3.150,385.583 3.102 C 386.534 2.936,388.368 2.518,390.315 2.022 C 391.083 1.827,391.885 1.667,392.096 1.667 C 392.308 1.667,392.527 1.592,392.583 1.500 C 392.640 1.408,392.977 1.333,393.333 1.333 C 393.689 1.333,394.027 1.258,394.083 1.167 C 394.140 1.075,394.477 1.000,394.833 1.000 C 395.189 1.000,395.527 0.925,395.583 0.833 C 395.640 0.742,395.977 0.667,396.333 0.667 C 396.689 0.667,397.027 0.592,397.083 0.500 C 397.140 0.408,397.388 0.328,397.635 0.322 C 397.882 0.315,398.233 0.245,398.417 0.167 C 398.603 0.087,310.932 0.018,199.875 0.012 C 90.494 0.005,1.000 0.034,1.000 0.076 " stroke="none" fill="#1c1c1c" fill-rule="evenodd"></path><path id="path2" d="M0.333 0.141 C 0.333 0.295,1.684 0.871,1.792 0.764 C 1.828 0.727,1.590 0.600,1.262 0.482 C 0.935 0.363,0.667 0.206,0.667 0.133 C 0.667 0.060,0.592 0.000,0.500 0.000 C 0.408 0.000,0.333 0.064,0.333 0.141 M399.000 0.162 C 398.863 0.241,398.262 0.418,397.667 0.555 C 397.071 0.693,396.741 0.812,396.933 0.819 C 397.126 0.827,397.501 0.764,397.767 0.680 C 398.033 0.595,398.531 0.479,398.875 0.422 C 399.219 0.365,399.500 0.247,399.500 0.159 C 399.500 -0.032,399.338 -0.031,399.000 0.162 M2.649 1.182 C 3.052 1.361,3.412 1.477,3.448 1.441 C 3.520 1.369,2.236 0.826,2.038 0.845 C 1.971 0.852,2.246 1.003,2.649 1.182 M395.667 1.000 C 395.332 1.107,395.315 1.134,395.583 1.138 C 395.767 1.141,396.067 1.079,396.250 1.000 C 396.675 0.817,396.237 0.817,395.667 1.000 M394.167 1.333 C 393.832 1.441,393.815 1.468,394.083 1.472 C 394.267 1.474,394.567 1.412,394.750 1.333 C 395.175 1.151,394.737 1.151,394.167 1.333 M392.750 1.667 L 392.417 1.810 392.750 1.819 C 392.933 1.824,393.196 1.756,393.333 1.667 C 393.665 1.453,393.248 1.453,392.750 1.667 M391.333 2.000 C 391.111 2.144,391.111 2.162,391.333 2.162 C 391.471 2.162,391.696 2.089,391.833 2.000 C 392.056 1.856,392.056 1.838,391.833 1.838 C 391.696 1.838,391.471 1.911,391.333 2.000 M7.076 2.924 C 8.080 3.332,8.980 3.663,9.076 3.659 C 9.172 3.655,8.428 3.318,7.424 2.909 C 6.420 2.501,5.520 2.170,5.424 2.174 C 5.328 2.178,6.072 2.516,7.076 2.924 M389.833 2.333 C 389.502 2.547,389.918 2.547,390.417 2.333 L 390.750 2.190 390.417 2.181 C 390.233 2.176,389.971 2.244,389.833 2.333 M388.000 2.758 C 387.587 2.877,387.400 2.976,387.583 2.979 C 387.767 2.983,388.292 2.881,388.750 2.754 C 389.208 2.627,389.396 2.527,389.167 2.533 C 388.938 2.539,388.412 2.640,388.000 2.758 M386.250 3.167 C 385.789 3.284,385.782 3.295,386.167 3.311 C 386.396 3.321,386.696 3.256,386.833 3.167 C 387.117 2.983,386.970 2.983,386.250 3.167 M384.833 3.500 C 384.498 3.607,384.482 3.634,384.750 3.638 C 384.933 3.641,385.233 3.579,385.417 3.500 C 385.841 3.317,385.403 3.317,384.833 3.500 M383.417 3.833 C 383.207 3.924,383.176 3.977,383.333 3.977 C 383.471 3.977,383.733 3.912,383.917 3.833 C 384.127 3.743,384.158 3.690,384.000 3.690 C 383.863 3.690,383.600 3.755,383.417 3.833 M381.917 4.167 C 381.707 4.257,381.676 4.310,381.833 4.310 C 381.971 4.310,382.233 4.245,382.417 4.167 C 382.627 4.076,382.658 4.023,382.500 4.023 C 382.363 4.023,382.100 4.088,381.917 4.167 M380.500 4.500 C 380.169 4.714,380.585 4.714,381.083 4.500 L 381.417 4.357 381.083 4.348 C 380.900 4.343,380.637 4.411,380.500 4.500 M376.917 5.333 C 376.455 5.451,376.449 5.462,376.833 5.478 C 377.063 5.487,377.363 5.422,377.500 5.333 C 377.784 5.150,377.637 5.150,376.917 5.333 M375.500 5.667 C 375.157 5.777,375.142 5.803,375.417 5.814 C 375.600 5.822,375.863 5.756,376.000 5.667 C 376.292 5.478,376.089 5.478,375.500 5.667 M372.417 6.333 L 372.083 6.477 372.417 6.486 C 372.600 6.491,372.863 6.422,373.000 6.333 C 373.331 6.119,372.915 6.119,372.417 6.333 M370.917 6.667 C 370.492 6.849,370.930 6.849,371.500 6.667 C 371.835 6.559,371.851 6.532,371.583 6.528 C 371.400 6.526,371.100 6.588,370.917 6.667 M368.917 7.087 C 368.458 7.205,368.233 7.305,368.417 7.310 C 368.600 7.315,369.162 7.216,369.667 7.090 C 370.171 6.965,370.396 6.864,370.167 6.867 C 369.938 6.870,369.375 6.969,368.917 7.087 M18.811 7.423 C 19.119 7.557,19.457 7.664,19.561 7.660 C 19.665 7.657,19.498 7.544,19.189 7.410 C 18.881 7.276,18.543 7.170,18.439 7.173 C 18.335 7.177,18.502 7.289,18.811 7.423 M367.083 7.500 C 366.630 7.615,366.622 7.628,367.000 7.635 C 367.229 7.640,367.567 7.579,367.750 7.500 C 368.161 7.323,367.777 7.323,367.083 7.500 M365.583 7.833 C 365.122 7.951,365.116 7.962,365.500 7.978 C 365.729 7.987,366.029 7.922,366.167 7.833 C 366.450 7.650,366.304 7.650,365.583 7.833 M364.000 8.167 C 363.665 8.274,363.649 8.301,363.917 8.305 C 364.100 8.308,364.400 8.245,364.583 8.167 C 365.008 7.984,364.570 7.984,364.000 8.167 M360.917 8.833 L 360.583 8.977 360.917 8.986 C 361.100 8.991,361.363 8.922,361.500 8.833 C 361.831 8.619,361.415 8.619,360.917 8.833 M359.417 9.167 C 359.207 9.257,359.176 9.310,359.333 9.310 C 359.471 9.310,359.733 9.245,359.917 9.167 C 360.127 9.076,360.158 9.023,360.000 9.023 C 359.863 9.023,359.600 9.088,359.417 9.167 M24.811 9.590 C 25.119 9.724,25.457 9.830,25.561 9.827 C 25.665 9.823,25.498 9.711,25.189 9.577 C 24.881 9.443,24.543 9.336,24.439 9.340 C 24.335 9.343,24.502 9.456,24.811 9.590 M357.083 9.667 C 356.630 9.782,356.622 9.795,357.000 9.802 C 357.229 9.806,357.567 9.745,357.750 9.667 C 358.161 9.490,357.777 9.490,357.083 9.667 M25.878 9.927 C 26.023 10.079,27.162 10.497,27.417 10.491 C 27.605 10.486,26.771 10.107,26.156 9.917 C 25.933 9.848,25.808 9.853,25.878 9.927 M355.583 10.000 C 355.122 10.117,355.116 10.129,355.500 10.144 C 355.729 10.154,356.029 10.089,356.167 10.000 C 356.450 9.817,356.304 9.817,355.583 10.000 M354.000 10.333 L 353.583 10.467 354.000 10.481 C 354.229 10.489,354.529 10.422,354.667 10.333 C 354.985 10.128,354.642 10.128,354.000 10.333 M28.250 10.821 C 28.617 10.998,29.029 11.141,29.167 11.141 C 29.452 11.139,28.627 10.760,28.000 10.604 C 27.771 10.547,27.883 10.645,28.250 10.821 M352.500 10.667 C 352.165 10.774,352.149 10.801,352.417 10.805 C 352.600 10.808,352.900 10.745,353.083 10.667 C 353.508 10.484,353.070 10.484,352.500 10.667 M350.917 11.000 L 350.583 11.143 350.917 11.143 C 351.100 11.143,351.400 11.079,351.583 11.000 L 351.917 10.857 351.583 10.857 C 351.400 10.857,351.100 10.921,350.917 11.000 M349.417 11.333 C 348.992 11.516,349.430 11.516,350.000 11.333 C 350.335 11.226,350.351 11.199,350.083 11.195 C 349.900 11.192,349.600 11.255,349.417 11.333 M30.917 11.756 C 31.192 11.882,31.529 11.983,31.667 11.980 C 31.804 11.977,31.654 11.874,31.333 11.750 C 30.572 11.457,30.273 11.461,30.917 11.756 M345.833 12.106 C 345.006 12.359,345.575 12.313,346.917 12.018 C 347.484 11.894,347.509 11.872,347.083 11.874 C 346.808 11.876,346.246 11.980,345.833 12.106 M343.833 12.500 L 343.417 12.633 343.833 12.648 C 344.063 12.655,344.363 12.589,344.500 12.500 C 344.818 12.294,344.476 12.294,343.833 12.500 M342.167 12.833 C 341.823 12.943,341.809 12.969,342.083 12.981 C 342.267 12.989,342.529 12.922,342.667 12.833 C 342.959 12.645,342.756 12.645,342.167 12.833 M340.417 13.167 L 340.083 13.310 340.417 13.319 C 340.600 13.324,340.862 13.256,341.000 13.167 C 341.331 12.953,340.915 12.953,340.417 13.167 M338.750 13.500 C 338.325 13.683,338.763 13.683,339.333 13.500 C 339.668 13.393,339.685 13.366,339.417 13.362 C 339.233 13.359,338.933 13.421,338.750 13.500 M336.167 14.000 C 335.597 14.120,335.595 14.123,336.083 14.133 C 336.358 14.139,336.733 14.079,336.917 14.000 C 337.317 13.828,336.985 13.828,336.167 14.000 M334.500 14.333 C 333.930 14.453,333.928 14.456,334.417 14.466 C 334.692 14.472,335.067 14.412,335.250 14.333 C 335.651 14.161,335.318 14.161,334.500 14.333 M332.833 14.667 C 332.257 14.788,332.256 14.790,332.750 14.809 C 333.025 14.820,333.362 14.756,333.500 14.667 C 333.778 14.487,333.685 14.487,332.833 14.667 M331.083 15.000 C 330.630 15.115,330.622 15.128,331.000 15.135 C 331.229 15.140,331.567 15.079,331.750 15.000 C 332.161 14.823,331.777 14.823,331.083 15.000 M329.417 15.333 L 329.083 15.477 329.417 15.477 C 329.600 15.477,329.900 15.412,330.083 15.333 L 330.417 15.190 330.083 15.190 C 329.900 15.190,329.600 15.255,329.417 15.333 M327.750 15.667 C 327.540 15.757,327.509 15.810,327.667 15.810 C 327.804 15.810,328.067 15.745,328.250 15.667 C 328.460 15.576,328.491 15.523,328.333 15.523 C 328.196 15.523,327.933 15.588,327.750 15.667 M44.167 16.083 C 44.396 16.214,44.733 16.321,44.917 16.320 C 45.100 16.319,44.950 16.211,44.583 16.079 C 43.748 15.778,43.634 15.779,44.167 16.083 M325.500 16.090 C 324.996 16.206,324.771 16.307,325.000 16.314 C 325.229 16.321,325.792 16.223,326.250 16.095 C 327.284 15.807,326.744 15.804,325.500 16.090 M45.500 16.492 C 45.637 16.585,45.894 16.663,46.069 16.664 C 46.496 16.668,46.363 16.572,45.750 16.435 C 45.385 16.353,45.317 16.369,45.500 16.492 M323.500 16.500 C 322.930 16.620,322.928 16.623,323.417 16.633 C 323.692 16.639,324.067 16.579,324.250 16.500 C 324.651 16.328,324.318 16.328,323.500 16.500 M46.667 16.826 C 46.804 16.919,47.060 16.996,47.236 16.997 C 47.663 17.001,47.529 16.905,46.917 16.768 C 46.552 16.687,46.484 16.702,46.667 16.826 M321.917 16.833 C 321.455 16.951,321.449 16.962,321.833 16.978 C 322.063 16.987,322.362 16.922,322.500 16.833 C 322.784 16.650,322.637 16.650,321.917 16.833 M320.167 17.167 L 319.750 17.300 320.167 17.314 C 320.396 17.322,320.696 17.256,320.833 17.167 C 321.152 16.961,320.809 16.961,320.167 17.167 M49.000 17.492 C 49.137 17.585,49.394 17.663,49.569 17.664 C 49.996 17.668,49.863 17.572,49.250 17.435 C 48.885 17.353,48.817 17.369,49.000 17.492 M318.500 17.500 C 318.165 17.607,318.149 17.634,318.417 17.638 C 318.600 17.641,318.900 17.579,319.083 17.500 C 319.508 17.317,319.070 17.317,318.500 17.500 M50.167 17.833 C 50.304 17.922,50.567 17.991,50.750 17.986 L 51.083 17.977 50.750 17.833 C 50.252 17.619,49.835 17.619,50.167 17.833 M316.667 17.833 C 316.332 17.941,316.315 17.968,316.583 17.972 C 316.767 17.974,317.067 17.912,317.250 17.833 C 317.675 17.651,317.237 17.651,316.667 17.833 M51.333 18.167 C 51.471 18.256,51.696 18.328,51.833 18.328 C 52.056 18.328,52.056 18.310,51.833 18.167 C 51.696 18.078,51.471 18.005,51.333 18.005 C 51.111 18.005,51.111 18.023,51.333 18.167 M314.750 18.167 L 314.417 18.310 314.750 18.305 C 314.933 18.302,315.271 18.240,315.500 18.167 L 315.917 18.033 315.500 18.028 C 315.271 18.026,314.933 18.088,314.750 18.167 M312.917 18.504 C 312.694 18.603,312.833 18.619,313.333 18.553 C 313.746 18.498,314.115 18.427,314.153 18.393 C 314.298 18.268,313.235 18.363,312.917 18.504 M310.583 18.934 L 309.750 19.162 310.500 19.068 C 310.912 19.017,311.550 18.914,311.917 18.841 L 312.583 18.708 312.000 18.707 C 311.679 18.707,311.042 18.809,310.583 18.934 M54.167 18.992 C 54.304 19.085,54.560 19.163,54.736 19.164 C 55.163 19.168,55.029 19.072,54.417 18.935 C 54.052 18.853,53.984 18.869,54.167 18.992 M55.333 19.333 C 55.471 19.422,55.733 19.491,55.917 19.486 L 56.250 19.477 55.917 19.333 C 55.418 19.119,55.002 19.119,55.333 19.333 M308.417 19.333 C 307.963 19.449,307.955 19.461,308.333 19.469 C 308.563 19.473,308.900 19.412,309.083 19.333 C 309.494 19.157,309.111 19.157,308.417 19.333 M56.500 19.667 C 56.637 19.756,56.900 19.824,57.083 19.819 L 57.417 19.810 57.083 19.667 C 56.585 19.453,56.169 19.453,56.500 19.667 M306.500 19.667 L 306.083 19.800 306.500 19.805 C 306.729 19.808,307.067 19.745,307.250 19.667 L 307.583 19.523 307.250 19.528 C 307.067 19.531,306.729 19.593,306.500 19.667 M304.667 20.000 L 304.250 20.133 304.667 20.148 C 304.896 20.155,305.196 20.089,305.333 20.000 C 305.652 19.794,305.309 19.794,304.667 20.000 M58.917 20.333 C 59.100 20.412,59.362 20.477,59.500 20.477 C 59.658 20.477,59.627 20.424,59.417 20.333 C 59.233 20.255,58.971 20.190,58.833 20.190 C 58.676 20.190,58.707 20.243,58.917 20.333 M302.833 20.333 C 302.273 20.513,302.878 20.513,303.583 20.333 C 304.032 20.219,304.041 20.206,303.667 20.203 C 303.438 20.201,303.063 20.260,302.833 20.333 M60.167 20.667 C 60.737 20.849,61.175 20.849,60.750 20.667 C 60.567 20.588,60.267 20.526,60.083 20.528 C 59.815 20.532,59.832 20.559,60.167 20.667 M301.000 20.667 C 300.771 20.740,300.321 20.819,300.000 20.842 C 299.552 20.874,299.513 20.897,299.833 20.944 C 300.063 20.978,300.737 20.898,301.333 20.766 C 301.929 20.634,302.192 20.528,301.917 20.530 C 301.642 20.532,301.229 20.593,301.000 20.667 M298.250 21.167 L 297.583 21.286 298.167 21.298 C 298.487 21.305,298.900 21.245,299.083 21.167 C 299.476 20.998,299.193 20.998,298.250 21.167 M63.583 21.500 C 63.767 21.579,64.067 21.641,64.250 21.638 C 64.518 21.634,64.502 21.607,64.167 21.500 C 63.597 21.317,63.159 21.317,63.583 21.500 M296.500 21.500 C 295.923 21.621,295.922 21.623,296.417 21.642 C 296.692 21.653,297.029 21.589,297.167 21.500 C 297.444 21.321,297.352 21.321,296.500 21.500 M65.000 21.826 C 65.137 21.919,65.394 21.996,65.569 21.997 C 65.996 22.001,65.863 21.905,65.250 21.768 C 64.885 21.687,64.817 21.702,65.000 21.826 M294.583 21.833 C 294.130 21.949,294.122 21.961,294.500 21.969 C 294.729 21.973,295.067 21.912,295.250 21.833 C 295.661 21.657,295.277 21.657,294.583 21.833 M66.333 22.167 C 66.471 22.256,66.733 22.324,66.917 22.319 L 67.250 22.310 66.917 22.167 C 66.418 21.953,66.002 21.953,66.333 22.167 M292.833 22.167 C 292.498 22.274,292.482 22.301,292.750 22.305 C 292.933 22.308,293.233 22.245,293.417 22.167 C 293.841 21.984,293.403 21.984,292.833 22.167 M290.917 22.500 L 290.583 22.643 290.917 22.643 C 291.100 22.643,291.400 22.579,291.583 22.500 L 291.917 22.357 291.583 22.357 C 291.400 22.357,291.100 22.421,290.917 22.500 M289.303 22.753 C 289.255 22.800,288.774 22.904,288.233 22.983 C 287.531 23.085,287.417 23.131,287.833 23.143 C 288.154 23.153,288.792 23.056,289.250 22.928 C 289.708 22.801,289.927 22.690,289.736 22.682 C 289.545 22.673,289.350 22.705,289.303 22.753 M70.750 23.254 C 71.208 23.381,71.733 23.484,71.917 23.481 C 72.100 23.479,71.875 23.373,71.417 23.246 C 70.958 23.119,70.433 23.016,70.250 23.019 C 70.067 23.021,70.292 23.127,70.750 23.254 M285.917 23.333 L 285.250 23.453 285.917 23.465 C 286.283 23.471,286.733 23.412,286.917 23.333 L 287.250 23.190 286.917 23.202 C 286.733 23.209,286.283 23.268,285.917 23.333 M72.500 23.664 C 72.637 23.754,72.931 23.829,73.153 23.831 C 73.688 23.834,73.552 23.739,72.833 23.608 C 72.423 23.532,72.324 23.549,72.500 23.664 M283.917 23.667 L 283.250 23.786 283.833 23.798 C 284.154 23.805,284.567 23.745,284.750 23.667 C 285.143 23.498,284.859 23.498,283.917 23.667 M74.000 24.000 C 74.137 24.089,74.438 24.155,74.667 24.148 L 75.083 24.133 74.667 24.000 C 74.024 23.794,73.682 23.794,74.000 24.000 M281.917 24.000 L 281.417 24.127 281.917 24.144 C 282.192 24.154,282.529 24.089,282.667 24.000 C 282.976 23.800,282.703 23.800,281.917 24.000 M75.667 24.333 C 75.804 24.422,76.067 24.491,76.250 24.486 L 76.583 24.477 76.250 24.333 C 75.752 24.119,75.335 24.119,75.667 24.333 M279.833 24.333 L 279.417 24.467 279.833 24.472 C 280.063 24.474,280.400 24.412,280.583 24.333 L 280.917 24.190 280.583 24.195 C 280.400 24.198,280.063 24.260,279.833 24.333 M77.250 24.667 C 77.433 24.745,77.733 24.810,77.917 24.810 L 78.250 24.810 77.917 24.667 C 77.733 24.588,77.433 24.523,77.250 24.523 L 76.917 24.523 77.250 24.667 M277.750 24.667 C 277.301 24.781,277.292 24.794,277.667 24.797 C 277.896 24.799,278.271 24.740,278.500 24.667 C 279.060 24.487,278.455 24.487,277.750 24.667 M78.917 25.000 C 79.415 25.214,79.831 25.214,79.500 25.000 C 79.362 24.911,79.100 24.843,78.917 24.848 L 78.583 24.857 78.917 25.000 M275.667 25.000 C 275.106 25.179,275.712 25.179,276.417 25.000 C 276.866 24.886,276.874 24.872,276.500 24.870 C 276.271 24.868,275.896 24.927,275.667 25.000 M273.417 25.342 C 273.088 25.431,273.259 25.446,273.917 25.385 C 274.467 25.333,274.948 25.263,274.986 25.229 C 275.110 25.118,273.931 25.202,273.417 25.342 M81.250 25.496 C 81.568 25.637,82.631 25.732,82.486 25.607 C 82.448 25.573,82.079 25.502,81.667 25.447 C 81.166 25.381,81.027 25.397,81.250 25.496 M271.792 25.618 C 271.998 25.657,272.335 25.657,272.542 25.618 C 272.748 25.578,272.579 25.545,272.167 25.545 C 271.754 25.545,271.585 25.578,271.792 25.618 M82.833 25.833 C 82.971 25.922,83.271 25.989,83.500 25.981 L 83.917 25.967 83.500 25.833 C 82.858 25.628,82.515 25.628,82.833 25.833 M270.083 25.833 L 269.417 25.953 270.000 25.960 C 270.321 25.964,270.771 25.907,271.000 25.833 C 271.536 25.662,271.041 25.662,270.083 25.833 M84.500 26.167 C 84.637 26.256,84.938 26.322,85.167 26.314 L 85.583 26.300 85.167 26.167 C 84.524 25.961,84.182 25.961,84.500 26.167 M267.750 26.167 L 267.250 26.294 267.750 26.302 C 268.025 26.306,268.400 26.245,268.583 26.167 L 268.917 26.023 268.583 26.031 C 268.400 26.036,268.025 26.097,267.750 26.167 M86.167 26.500 C 86.304 26.589,86.567 26.657,86.750 26.652 L 87.083 26.643 86.750 26.500 C 86.252 26.286,85.835 26.286,86.167 26.500 M265.417 26.500 L 264.917 26.627 265.417 26.635 C 265.692 26.640,266.067 26.579,266.250 26.500 L 266.583 26.357 266.250 26.365 C 266.067 26.369,265.692 26.430,265.417 26.500 M87.917 26.833 C 88.100 26.912,88.400 26.974,88.583 26.972 C 88.851 26.968,88.835 26.941,88.500 26.833 C 87.930 26.651,87.492 26.651,87.917 26.833 M263.000 26.833 L 262.583 26.967 263.000 26.967 C 263.229 26.967,263.604 26.907,263.833 26.833 L 264.250 26.700 263.833 26.700 C 263.604 26.700,263.229 26.760,263.000 26.833 M89.750 27.167 C 90.455 27.346,91.060 27.346,90.500 27.167 C 90.271 27.093,89.896 27.035,89.667 27.036 C 89.292 27.039,89.301 27.052,89.750 27.167 M260.750 27.167 C 260.304 27.280,260.295 27.294,260.667 27.294 C 260.896 27.294,261.308 27.237,261.583 27.167 C 262.029 27.053,262.038 27.039,261.667 27.039 C 261.438 27.039,261.025 27.097,260.750 27.167 M91.181 27.395 C 91.219 27.429,91.625 27.501,92.083 27.554 C 92.645 27.618,92.781 27.604,92.500 27.508 C 92.084 27.367,91.049 27.278,91.181 27.395 M258.958 27.451 C 259.165 27.491,259.502 27.491,259.708 27.451 C 259.915 27.411,259.746 27.379,259.333 27.379 C 258.921 27.379,258.752 27.411,258.958 27.451 M93.294 27.785 C 93.501 27.824,93.801 27.823,93.960 27.781 C 94.120 27.739,93.950 27.707,93.583 27.709 C 93.217 27.711,93.086 27.745,93.294 27.785 M256.377 27.786 C 256.631 27.825,257.006 27.824,257.211 27.784 C 257.416 27.744,257.208 27.713,256.750 27.714 C 256.292 27.716,256.124 27.748,256.377 27.786 M94.583 27.999 C 94.902 28.137,96.131 28.231,95.986 28.107 C 95.948 28.074,95.542 28.004,95.083 27.951 C 94.547 27.889,94.369 27.906,94.583 27.999 M253.877 28.120 C 254.131 28.158,254.506 28.157,254.711 28.117 C 254.916 28.078,254.708 28.046,254.250 28.048 C 253.792 28.049,253.624 28.081,253.877 28.120 M96.583 28.325 C 96.900 28.469,98.132 28.568,97.986 28.438 C 97.948 28.404,97.542 28.330,97.083 28.275 C 96.522 28.206,96.359 28.223,96.583 28.325 M251.833 28.333 L 251.083 28.450 251.750 28.458 C 252.117 28.463,252.604 28.407,252.833 28.333 C 253.360 28.165,252.918 28.165,251.833 28.333 M98.667 28.667 C 98.896 28.740,99.271 28.799,99.500 28.797 C 99.874 28.794,99.866 28.781,99.417 28.667 C 98.712 28.487,98.106 28.487,98.667 28.667 M249.250 28.667 L 248.583 28.786 249.167 28.793 C 249.487 28.797,249.938 28.740,250.167 28.667 C 250.702 28.495,250.208 28.495,249.250 28.667 M100.667 29.000 C 100.804 29.089,101.104 29.155,101.333 29.148 L 101.750 29.133 101.333 29.000 C 100.691 28.794,100.348 28.794,100.667 29.000 M246.750 29.000 L 246.250 29.127 246.750 29.130 C 247.025 29.132,247.438 29.073,247.667 29.000 L 248.083 28.867 247.667 28.870 C 247.438 28.871,247.025 28.930,246.750 29.000 M102.833 29.333 C 103.063 29.407,103.438 29.467,103.667 29.467 L 104.083 29.467 103.667 29.333 C 103.438 29.260,103.063 29.200,102.833 29.200 L 102.417 29.200 102.833 29.333 M243.833 29.333 L 243.250 29.456 243.833 29.458 C 244.154 29.460,244.642 29.403,244.917 29.333 L 245.417 29.206 244.917 29.208 C 244.642 29.210,244.154 29.266,243.833 29.333 M105.417 29.667 C 105.692 29.737,106.104 29.794,106.333 29.794 C 106.705 29.794,106.696 29.780,106.250 29.667 C 105.975 29.597,105.563 29.539,105.333 29.539 C 104.962 29.539,104.971 29.553,105.417 29.667 M240.750 29.667 C 240.029 29.850,240.815 29.856,241.833 29.675 L 242.583 29.542 241.917 29.541 C 241.550 29.540,241.025 29.597,240.750 29.667 M107.211 29.953 C 107.464 29.991,107.839 29.990,108.044 29.951 C 108.249 29.911,108.042 29.880,107.583 29.881 C 107.125 29.882,106.957 29.915,107.211 29.953 M238.875 29.953 C 239.127 29.991,239.540 29.991,239.792 29.953 C 240.044 29.915,239.838 29.883,239.333 29.883 C 238.829 29.883,238.623 29.915,238.875 29.953 M108.917 30.162 C 109.423 30.296,110.947 30.384,110.819 30.273 C 110.781 30.239,110.225 30.171,109.583 30.121 C 108.876 30.066,108.613 30.082,108.917 30.162 M236.417 30.167 L 235.417 30.277 236.333 30.286 C 236.838 30.290,237.475 30.237,237.750 30.167 C 238.391 30.004,237.890 30.004,236.417 30.167 M111.500 30.491 C 111.911 30.632,113.288 30.725,113.153 30.604 C 113.115 30.570,112.633 30.498,112.083 30.446 C 111.436 30.383,111.230 30.399,111.500 30.491 M233.417 30.500 L 232.583 30.614 233.417 30.624 C 233.875 30.629,234.438 30.573,234.667 30.500 L 235.083 30.367 234.667 30.376 C 234.438 30.381,233.875 30.437,233.417 30.500 M114.167 30.828 C 114.580 30.966,115.786 31.056,115.653 30.939 C 115.615 30.906,115.171 30.836,114.667 30.784 C 114.075 30.722,113.898 30.738,114.167 30.828 M230.250 30.833 L 229.417 30.948 230.250 30.954 C 230.708 30.958,231.308 30.903,231.583 30.833 L 232.083 30.706 231.583 30.713 C 231.308 30.716,230.708 30.770,230.250 30.833 M116.750 31.158 C 117.257 31.296,118.780 31.386,118.653 31.271 C 118.615 31.236,118.058 31.166,117.417 31.115 C 116.681 31.056,116.435 31.072,116.750 31.158 M226.667 31.167 L 225.917 31.283 226.583 31.299 C 226.950 31.307,227.550 31.252,227.917 31.176 L 228.583 31.038 228.000 31.044 C 227.679 31.047,227.079 31.103,226.667 31.167 M120.417 31.510 C 120.783 31.585,121.383 31.642,121.750 31.635 C 122.403 31.622,122.400 31.619,121.583 31.492 C 120.398 31.308,119.505 31.321,120.417 31.510 M223.000 31.500 L 222.250 31.617 222.917 31.632 C 223.283 31.641,223.883 31.585,224.250 31.510 L 224.917 31.372 224.333 31.378 C 224.012 31.381,223.412 31.436,223.000 31.500 M124.000 31.842 C 125.063 32.031,126.009 32.015,125.083 31.824 C 124.717 31.748,124.154 31.691,123.833 31.697 C 123.289 31.708,123.301 31.717,124.000 31.842 M219.500 31.833 C 218.645 32.013,219.606 32.019,220.750 31.841 L 221.583 31.711 220.833 31.711 C 220.421 31.711,219.821 31.766,219.500 31.833 M126.795 32.121 C 127.094 32.158,127.544 32.157,127.795 32.119 C 128.045 32.081,127.800 32.051,127.250 32.052 C 126.700 32.053,126.495 32.084,126.795 32.121 M216.621 32.120 C 216.917 32.157,217.442 32.158,217.788 32.122 C 218.134 32.086,217.892 32.055,217.250 32.055 C 216.608 32.054,216.325 32.083,216.621 32.120 M128.542 32.282 C 128.702 32.323,128.965 32.323,129.125 32.282 C 129.285 32.240,129.154 32.205,128.833 32.205 C 128.512 32.205,128.381 32.240,128.542 32.282 M214.877 32.286 C 215.131 32.325,215.506 32.324,215.711 32.284 C 215.916 32.244,215.708 32.213,215.250 32.214 C 214.792 32.216,214.624 32.248,214.877 32.286 M130.208 32.455 C 130.552 32.491,131.115 32.491,131.458 32.455 C 131.802 32.419,131.521 32.389,130.833 32.389 C 130.146 32.389,129.865 32.419,130.208 32.455 M212.047 32.456 C 212.485 32.490,213.160 32.490,213.547 32.455 C 213.934 32.420,213.575 32.392,212.750 32.392 C 211.925 32.393,211.609 32.422,212.047 32.456 M133.167 32.671 C 133.912 32.808,136.286 32.889,136.153 32.773 C 136.115 32.739,135.258 32.672,134.250 32.623 C 133.051 32.565,132.676 32.581,133.167 32.671 M208.333 32.667 L 207.083 32.773 208.250 32.791 C 208.892 32.801,209.754 32.749,210.167 32.675 L 210.917 32.542 210.250 32.551 C 209.883 32.556,209.021 32.608,208.333 32.667 M138.083 33.003 C 138.734 33.144,140.957 33.227,140.819 33.105 C 140.781 33.071,140.000 33.002,139.083 32.951 C 137.949 32.888,137.630 32.905,138.083 33.003 M203.167 33.000 L 201.917 33.107 203.167 33.127 C 203.854 33.138,204.717 33.085,205.083 33.010 L 205.750 32.872 205.083 32.883 C 204.717 32.888,203.854 32.941,203.167 33.000 M143.167 33.333 C 143.919 33.476,145.950 33.555,145.819 33.437 C 145.781 33.402,145.000 33.332,144.083 33.281 C 142.920 33.217,142.643 33.233,143.167 33.333 M195.833 33.333 L 194.417 33.438 196.000 33.452 C 196.871 33.460,197.996 33.410,198.500 33.340 L 199.417 33.214 198.333 33.221 C 197.737 33.225,196.612 33.276,195.833 33.333 M150.333 33.672 C 151.021 33.737,152.296 33.787,153.167 33.784 L 154.750 33.778 153.083 33.659 C 152.167 33.593,150.892 33.542,150.250 33.547 L 149.083 33.554 150.333 33.672 M187.417 33.667 L 185.417 33.766 187.500 33.780 C 188.646 33.788,190.071 33.740,190.667 33.673 L 191.750 33.551 190.583 33.559 C 189.942 33.563,188.517 33.612,187.417 33.667 M158.667 34.002 C 160.244 34.129,173.785 34.222,173.653 34.105 C 173.615 34.071,169.871 34.006,165.333 33.959 C 160.796 33.913,157.796 33.932,158.667 34.002 M175.583 34.000 L 174.250 34.106 175.833 34.116 C 176.704 34.122,178.429 34.074,179.667 34.009 L 181.917 33.890 179.417 33.892 C 178.042 33.894,176.317 33.942,175.583 34.000 " stroke="none" fill="#949494" fill-rule="evenodd"></path><path id="path3" d="M398.417 0.167 C 398.095 0.305,398.096 0.310,398.448 0.322 C 398.649 0.328,398.860 0.258,398.917 0.167 C 399.039 -0.030,398.875 -0.030,398.417 0.167 M397.083 0.500 C 396.961 0.697,397.125 0.697,397.583 0.500 C 397.905 0.362,397.904 0.356,397.552 0.345 C 397.351 0.339,397.140 0.408,397.083 0.500 M395.583 0.833 C 395.461 1.030,395.625 1.030,396.083 0.833 C 396.405 0.695,396.404 0.690,396.052 0.678 C 395.851 0.672,395.640 0.742,395.583 0.833 M394.079 1.173 C 394.009 1.287,394.135 1.308,394.444 1.233 C 395.083 1.080,395.143 1.000,394.621 1.000 C 394.382 1.000,394.138 1.078,394.079 1.173 M4.570 1.757 C 5.113 1.982,5.638 2.162,5.737 2.157 C 5.836 2.152,5.604 2.021,5.222 1.866 C 4.840 1.710,4.471 1.527,4.403 1.458 C 4.334 1.390,4.122 1.337,3.931 1.340 C 3.740 1.344,4.027 1.532,4.570 1.757 M392.585 1.497 C 392.521 1.600,392.690 1.622,393.033 1.557 C 393.770 1.417,393.834 1.333,393.204 1.333 C 392.919 1.333,392.641 1.407,392.585 1.497 M390.667 1.939 C 389.839 2.192,390.409 2.146,391.750 1.851 C 392.317 1.727,392.342 1.705,391.917 1.708 C 391.642 1.709,391.079 1.813,390.667 1.939 M6.092 2.311 C 6.279 2.481,7.333 2.849,7.333 2.744 C 7.333 2.668,6.199 2.167,6.030 2.167 C 5.977 2.167,6.005 2.231,6.092 2.311 M389.083 2.333 L 388.750 2.477 389.083 2.486 C 389.267 2.491,389.529 2.422,389.667 2.333 C 389.998 2.119,389.582 2.119,389.083 2.333 M387.667 2.667 C 387.335 2.881,387.752 2.881,388.250 2.667 L 388.583 2.523 388.250 2.514 C 388.067 2.509,387.804 2.578,387.667 2.667 M8.000 3.052 C 8.583 3.388,9.233 3.575,9.107 3.371 C 9.051 3.281,8.835 3.170,8.627 3.125 C 8.420 3.080,8.100 2.991,7.917 2.927 C 7.714 2.857,7.746 2.906,8.000 3.052 M386.167 3.000 C 385.835 3.214,386.252 3.214,386.750 3.000 L 387.083 2.857 386.750 2.848 C 386.567 2.843,386.304 2.911,386.167 3.000 M384.746 3.340 C 384.676 3.454,384.801 3.474,385.111 3.400 C 385.750 3.246,385.810 3.167,385.288 3.167 C 385.049 3.167,384.805 3.245,384.746 3.340 M383.167 3.667 C 382.848 3.872,383.191 3.872,383.833 3.667 L 384.250 3.533 383.833 3.519 C 383.604 3.511,383.304 3.578,383.167 3.667 M381.500 4.009 C 381.271 4.087,380.725 4.239,380.287 4.348 C 379.849 4.457,379.530 4.585,379.578 4.633 C 379.626 4.681,379.947 4.636,380.291 4.533 C 380.635 4.429,381.367 4.235,381.917 4.101 C 382.544 3.948,382.730 3.859,382.417 3.863 C 382.142 3.866,381.729 3.932,381.500 4.009 M11.167 4.286 C 11.304 4.337,11.567 4.447,11.750 4.532 C 12.078 4.683,12.078 4.681,11.760 4.426 C 11.582 4.283,11.319 4.173,11.176 4.180 C 10.952 4.191,10.951 4.206,11.167 4.286 M378.333 4.833 C 378.111 4.977,378.111 4.995,378.333 4.995 C 378.471 4.995,378.696 4.922,378.833 4.833 C 379.056 4.690,379.056 4.672,378.833 4.672 C 378.696 4.672,378.471 4.744,378.333 4.833 M376.833 5.167 C 376.502 5.381,376.918 5.381,377.417 5.167 L 377.750 5.023 377.417 5.014 C 377.233 5.009,376.971 5.078,376.833 5.167 M375.333 5.500 C 375.015 5.706,375.358 5.706,376.000 5.500 L 376.417 5.367 376.000 5.352 C 375.771 5.345,375.471 5.411,375.333 5.500 M373.833 5.833 C 373.515 6.039,373.858 6.039,374.500 5.833 L 374.917 5.700 374.500 5.686 C 374.271 5.678,373.971 5.744,373.833 5.833 M16.647 6.434 C 17.232 6.660,17.740 6.816,17.776 6.780 C 17.851 6.705,15.960 5.994,15.733 6.012 C 15.651 6.018,16.062 6.208,16.647 6.434 M372.167 6.158 C 371.764 6.286,371.160 6.423,369.124 6.852 C 368.596 6.963,368.195 7.084,368.232 7.120 C 368.299 7.187,369.399 6.968,373.000 6.168 C 373.570 6.041,373.572 6.038,373.083 6.032 C 372.808 6.029,372.396 6.086,372.167 6.158 M18.167 7.000 C 18.304 7.089,18.529 7.162,18.667 7.162 C 18.889 7.162,18.889 7.144,18.667 7.000 C 18.529 6.911,18.304 6.838,18.167 6.838 C 17.944 6.838,17.944 6.856,18.167 7.000 M367.083 7.333 C 366.961 7.530,367.125 7.530,367.583 7.333 C 367.905 7.195,367.904 7.190,367.552 7.178 C 367.351 7.172,367.140 7.242,367.083 7.333 M365.500 7.667 C 365.169 7.881,365.585 7.881,366.083 7.667 L 366.417 7.523 366.083 7.514 C 365.900 7.509,365.637 7.578,365.500 7.667 M20.917 8.000 C 21.375 8.197,21.539 8.197,21.417 8.000 C 21.360 7.908,21.149 7.839,20.948 7.845 C 20.596 7.856,20.595 7.862,20.917 8.000 M363.833 8.000 C 363.515 8.206,363.858 8.206,364.500 8.000 L 364.917 7.867 364.500 7.852 C 364.271 7.845,363.971 7.911,363.833 8.000 M22.144 8.423 C 22.877 8.742,23.220 8.736,22.606 8.416 C 22.343 8.279,22.006 8.170,21.856 8.173 C 21.706 8.177,21.836 8.289,22.144 8.423 M362.333 8.336 C 362.157 8.451,362.256 8.468,362.667 8.392 C 363.385 8.261,363.521 8.166,362.986 8.169 C 362.765 8.171,362.471 8.246,362.333 8.336 M360.333 8.773 C 359.506 9.025,360.075 8.979,361.417 8.685 C 361.984 8.560,362.009 8.539,361.583 8.541 C 361.308 8.542,360.746 8.647,360.333 8.773 M23.816 9.003 C 24.219 9.189,24.586 9.303,24.631 9.258 C 24.717 9.172,24.202 8.950,23.500 8.772 C 23.271 8.714,23.413 8.818,23.816 9.003 M358.583 9.167 L 358.250 9.310 358.583 9.319 C 358.767 9.324,359.029 9.256,359.167 9.167 C 359.498 8.953,359.082 8.953,358.583 9.167 M357.083 9.500 C 356.659 9.683,357.097 9.683,357.667 9.500 C 358.002 9.393,358.018 9.366,357.750 9.362 C 357.567 9.359,357.267 9.421,357.083 9.500 M26.000 9.833 C 26.137 9.922,26.363 9.995,26.500 9.995 C 26.722 9.995,26.722 9.977,26.500 9.833 C 26.363 9.744,26.137 9.672,26.000 9.672 C 25.778 9.672,25.778 9.690,26.000 9.833 M355.500 9.833 C 355.169 10.047,355.585 10.047,356.083 9.833 L 356.417 9.690 356.083 9.681 C 355.900 9.676,355.637 9.744,355.500 9.833 M353.913 10.173 C 353.842 10.287,353.968 10.308,354.278 10.233 C 354.916 10.080,354.977 10.000,354.454 10.000 C 354.215 10.000,353.971 10.078,353.913 10.173 M28.250 10.607 C 28.617 10.748,29.283 11.006,29.731 11.182 C 30.507 11.485,30.979 11.590,30.810 11.422 C 30.692 11.303,27.942 10.334,27.750 10.343 C 27.658 10.347,27.883 10.466,28.250 10.607 M352.333 10.509 C 352.154 10.631,352.272 10.647,352.750 10.567 C 353.577 10.429,353.710 10.333,353.069 10.336 C 352.802 10.337,352.471 10.415,352.333 10.509 M350.417 10.866 C 350.050 10.953,349.412 11.130,349.000 11.260 C 348.204 11.510,348.696 11.460,350.083 11.150 C 350.542 11.047,351.179 10.905,351.500 10.834 C 352.063 10.710,352.066 10.705,351.583 10.707 C 351.308 10.708,350.783 10.780,350.417 10.866 M31.167 11.667 C 31.304 11.756,31.529 11.828,31.667 11.828 C 31.889 11.828,31.889 11.810,31.667 11.667 C 31.529 11.578,31.304 11.505,31.167 11.505 C 30.944 11.505,30.944 11.523,31.167 11.667 M345.500 12.000 C 345.169 12.214,345.585 12.214,346.083 12.000 L 346.417 11.857 346.083 11.848 C 345.900 11.843,345.637 11.911,345.500 12.000 M343.667 12.342 C 343.488 12.464,343.606 12.481,344.083 12.401 C 344.910 12.262,345.043 12.166,344.403 12.169 C 344.135 12.171,343.804 12.248,343.667 12.342 M34.250 12.667 C 34.709 12.864,34.872 12.864,34.750 12.667 C 34.693 12.575,34.483 12.505,34.282 12.512 C 33.930 12.523,33.929 12.529,34.250 12.667 M342.000 12.675 C 341.821 12.797,341.939 12.814,342.417 12.734 C 343.243 12.596,343.377 12.499,342.736 12.503 C 342.469 12.504,342.137 12.582,342.000 12.675 M36.143 13.267 C 36.817 13.498,37.397 13.658,37.432 13.624 C 37.514 13.542,35.440 12.831,35.145 12.841 C 35.019 12.845,35.468 13.037,36.143 13.267 M340.250 13.004 C 340.027 13.103,340.166 13.119,340.667 13.053 C 341.079 12.998,341.448 12.927,341.486 12.893 C 341.631 12.768,340.568 12.863,340.250 13.004 M338.333 13.344 C 338.012 13.422,337.300 13.575,336.750 13.684 C 336.200 13.792,335.825 13.907,335.917 13.938 C 336.008 13.970,336.946 13.814,338.000 13.594 C 339.054 13.373,339.692 13.194,339.417 13.197 C 339.142 13.199,338.654 13.265,338.333 13.344 M37.833 13.833 C 37.971 13.922,38.196 13.995,38.333 13.995 C 38.556 13.995,38.556 13.977,38.333 13.833 C 38.196 13.744,37.971 13.672,37.833 13.672 C 37.611 13.672,37.611 13.690,37.833 13.833 M334.500 14.167 C 334.169 14.381,334.585 14.381,335.083 14.167 L 335.417 14.023 335.083 14.014 C 334.900 14.009,334.637 14.078,334.500 14.167 M332.746 14.507 C 332.676 14.620,332.801 14.641,333.111 14.567 C 333.750 14.413,333.810 14.333,333.288 14.333 C 333.049 14.333,332.805 14.411,332.746 14.507 M40.917 14.833 C 41.375 15.030,41.539 15.030,41.417 14.833 C 41.360 14.742,41.149 14.672,40.948 14.678 C 40.596 14.690,40.595 14.695,40.917 14.833 M331.000 14.833 C 330.682 15.039,331.024 15.039,331.667 14.833 L 332.083 14.700 331.667 14.686 C 331.438 14.678,331.137 14.744,331.000 14.833 M41.917 15.167 C 42.375 15.364,42.539 15.364,42.417 15.167 C 42.360 15.075,42.149 15.005,41.948 15.012 C 41.596 15.023,41.595 15.029,41.917 15.167 M329.083 15.163 C 328.900 15.240,328.193 15.399,327.513 15.517 C 326.833 15.635,326.374 15.764,326.494 15.803 C 326.703 15.873,327.546 15.716,329.500 15.245 C 330.138 15.091,330.264 15.024,329.917 15.023 C 329.642 15.023,329.267 15.086,329.083 15.163 M325.167 16.000 C 324.832 16.107,324.815 16.134,325.083 16.138 C 325.267 16.141,325.567 16.079,325.750 16.000 C 326.175 15.817,325.737 15.817,325.167 16.000 M45.583 16.333 C 46.042 16.530,46.205 16.530,46.083 16.333 C 46.027 16.242,45.816 16.172,45.615 16.178 C 45.263 16.190,45.262 16.195,45.583 16.333 M323.500 16.333 C 323.169 16.547,323.585 16.547,324.083 16.333 L 324.417 16.190 324.083 16.181 C 323.900 16.176,323.637 16.244,323.500 16.333 M46.750 16.667 C 47.248 16.881,47.665 16.881,47.333 16.667 C 47.196 16.578,46.933 16.509,46.750 16.514 L 46.417 16.523 46.750 16.667 M321.750 16.667 C 321.325 16.849,321.763 16.849,322.333 16.667 C 322.668 16.559,322.685 16.532,322.417 16.528 C 322.233 16.526,321.933 16.588,321.750 16.667 M47.917 17.000 C 48.375 17.197,48.539 17.197,48.417 17.000 C 48.360 16.908,48.149 16.839,47.948 16.845 C 47.596 16.856,47.595 16.862,47.917 17.000 M320.000 17.009 C 319.821 17.131,319.939 17.147,320.417 17.067 C 321.243 16.929,321.377 16.833,320.736 16.836 C 320.469 16.837,320.137 16.915,320.000 17.009 M49.083 17.333 C 49.582 17.547,49.998 17.547,49.667 17.333 C 49.529 17.244,49.267 17.176,49.083 17.181 L 48.750 17.190 49.083 17.333 M318.250 17.333 L 317.917 17.477 318.250 17.469 C 318.433 17.464,318.808 17.403,319.083 17.333 L 319.583 17.206 319.083 17.198 C 318.808 17.194,318.433 17.255,318.250 17.333 M50.667 17.759 C 51.079 17.893,51.666 18.084,51.971 18.183 C 52.276 18.283,52.564 18.325,52.612 18.277 C 52.660 18.229,52.373 18.102,51.975 17.995 C 51.576 17.888,51.078 17.732,50.867 17.650 C 50.657 17.567,50.357 17.504,50.200 17.508 C 50.044 17.512,50.254 17.625,50.667 17.759 M316.417 17.668 C 316.202 17.761,316.381 17.778,316.917 17.716 C 317.375 17.663,317.781 17.593,317.819 17.560 C 317.964 17.435,316.735 17.530,316.417 17.668 M314.167 18.098 L 313.417 18.329 314.083 18.232 C 314.450 18.178,315.050 18.076,315.417 18.005 L 316.083 17.875 315.500 17.871 C 315.179 17.868,314.579 17.970,314.167 18.098 M312.000 18.500 C 311.672 18.712,312.257 18.712,312.750 18.500 C 313.055 18.369,313.048 18.356,312.667 18.348 C 312.438 18.343,312.137 18.411,312.000 18.500 M54.333 18.833 C 54.471 18.922,54.696 18.995,54.833 18.995 C 55.056 18.995,55.056 18.977,54.833 18.833 C 54.696 18.744,54.471 18.672,54.333 18.672 C 54.111 18.672,54.111 18.690,54.333 18.833 M310.167 18.833 C 309.848 19.039,310.191 19.039,310.833 18.833 L 311.250 18.700 310.833 18.686 C 310.604 18.678,310.304 18.744,310.167 18.833 M55.417 19.167 C 55.915 19.381,56.331 19.381,56.000 19.167 C 55.862 19.078,55.600 19.009,55.417 19.014 L 55.083 19.023 55.417 19.167 M308.333 19.175 C 308.154 19.297,308.272 19.314,308.750 19.234 C 309.577 19.096,309.710 18.999,309.069 19.003 C 308.802 19.004,308.471 19.082,308.333 19.175 M56.347 19.393 C 56.385 19.426,56.642 19.503,56.917 19.565 C 57.282 19.647,57.349 19.631,57.167 19.508 C 56.942 19.355,56.180 19.249,56.347 19.393 M306.333 19.505 C 306.159 19.621,306.309 19.639,306.833 19.563 C 307.767 19.427,307.900 19.333,307.153 19.336 C 306.840 19.337,306.471 19.413,306.333 19.505 M57.514 19.727 C 57.552 19.759,57.808 19.837,58.083 19.898 C 58.448 19.980,58.516 19.964,58.333 19.841 C 58.108 19.689,57.347 19.582,57.514 19.727 M304.634 19.755 C 304.585 19.804,304.104 19.920,303.564 20.014 C 303.025 20.108,302.246 20.253,301.833 20.336 L 301.083 20.487 301.833 20.422 C 302.246 20.386,303.033 20.272,303.583 20.169 C 304.133 20.066,304.921 19.920,305.333 19.844 L 306.083 19.706 305.403 19.686 C 305.028 19.675,304.682 19.706,304.634 19.755 M58.681 20.063 C 58.719 20.097,59.275 20.252,59.917 20.406 C 60.558 20.561,61.233 20.729,61.417 20.781 C 61.600 20.833,61.701 20.823,61.641 20.759 C 61.581 20.695,60.953 20.499,60.245 20.322 C 58.996 20.009,58.537 19.934,58.681 20.063 M300.000 20.667 L 299.583 20.800 300.000 20.805 C 300.229 20.808,300.567 20.745,300.750 20.667 L 301.083 20.523 300.750 20.528 C 300.567 20.531,300.229 20.593,300.000 20.667 M62.333 21.000 C 62.471 21.089,62.696 21.162,62.833 21.162 C 63.056 21.162,63.056 21.144,62.833 21.000 C 62.696 20.911,62.471 20.838,62.333 20.838 C 62.111 20.838,62.111 20.856,62.333 21.000 M298.333 21.000 C 298.002 21.214,298.418 21.214,298.917 21.000 L 299.250 20.857 298.917 20.848 C 298.733 20.843,298.471 20.911,298.333 21.000 M63.750 21.333 C 64.209 21.530,64.372 21.530,64.250 21.333 C 64.193 21.242,63.983 21.172,63.782 21.178 C 63.430 21.190,63.429 21.195,63.750 21.333 M296.333 21.333 C 296.015 21.539,296.358 21.539,297.000 21.333 L 297.417 21.200 297.000 21.186 C 296.771 21.178,296.471 21.244,296.333 21.333 M65.083 21.667 C 65.582 21.881,65.998 21.881,65.667 21.667 C 65.529 21.578,65.267 21.509,65.083 21.514 L 64.750 21.523 65.083 21.667 M294.500 21.675 C 294.321 21.797,294.439 21.814,294.917 21.734 C 295.743 21.596,295.877 21.499,295.236 21.503 C 294.969 21.504,294.637 21.582,294.500 21.675 M66.250 21.911 C 66.617 22.080,69.013 22.666,69.289 22.653 C 69.451 22.646,69.021 22.489,68.333 22.305 C 67.133 21.983,65.903 21.751,66.250 21.911 M292.333 22.008 C 292.104 22.085,291.317 22.263,290.583 22.405 C 289.850 22.546,289.550 22.629,289.917 22.588 C 290.697 22.502,292.301 22.228,293.250 22.019 L 293.917 21.872 293.333 21.870 C 293.012 21.869,292.563 21.931,292.333 22.008 M69.833 22.833 C 69.971 22.922,70.233 22.991,70.417 22.986 L 70.750 22.977 70.417 22.833 C 69.918 22.619,69.502 22.619,69.833 22.833 M287.917 22.833 L 287.417 22.961 287.917 22.969 C 288.192 22.973,288.567 22.912,288.750 22.833 L 289.083 22.690 288.750 22.698 C 288.567 22.703,288.192 22.763,287.917 22.833 M71.250 23.167 C 71.433 23.245,71.696 23.310,71.833 23.310 C 71.991 23.310,71.960 23.257,71.750 23.167 C 71.567 23.088,71.304 23.023,71.167 23.023 C 71.009 23.023,71.040 23.076,71.250 23.167 M285.917 23.167 L 285.583 23.310 285.917 23.302 C 286.100 23.297,286.475 23.237,286.750 23.167 L 287.250 23.039 286.750 23.031 C 286.475 23.027,286.100 23.088,285.917 23.167 M72.583 23.500 C 73.082 23.714,73.498 23.714,73.167 23.500 C 73.029 23.411,72.767 23.343,72.583 23.348 L 72.250 23.357 72.583 23.500 M283.833 23.509 C 283.654 23.631,283.772 23.647,284.250 23.567 C 285.077 23.429,285.210 23.333,284.569 23.336 C 284.302 23.337,283.971 23.415,283.833 23.509 M73.847 23.727 C 74.044 23.896,74.851 23.997,74.754 23.840 C 74.695 23.745,74.451 23.667,74.212 23.667 C 73.973 23.667,73.809 23.694,73.847 23.727 M281.667 23.833 C 281.359 24.032,281.802 24.032,282.583 23.833 L 283.083 23.706 282.500 23.689 C 282.179 23.679,281.804 23.744,281.667 23.833 M75.347 24.061 C 75.385 24.095,75.717 24.173,76.083 24.234 C 76.561 24.314,76.679 24.297,76.500 24.175 C 76.275 24.022,75.180 23.914,75.347 24.061 M279.583 24.175 C 279.359 24.277,279.522 24.294,280.083 24.225 C 280.542 24.170,280.948 24.096,280.986 24.062 C 281.132 23.932,279.900 24.031,279.583 24.175 M76.847 24.393 C 76.885 24.427,77.254 24.503,77.667 24.563 C 78.191 24.639,78.341 24.621,78.167 24.505 C 77.942 24.355,76.680 24.249,76.847 24.393 M277.417 24.503 C 277.205 24.596,277.448 24.614,278.083 24.552 C 278.633 24.498,279.115 24.427,279.153 24.394 C 279.300 24.266,277.732 24.365,277.417 24.503 M79.000 24.834 C 80.449 25.154,80.778 25.183,80.000 24.923 C 79.587 24.785,79.063 24.679,78.833 24.688 C 78.506 24.701,78.541 24.733,79.000 24.834 M274.917 24.934 L 274.083 25.162 274.833 25.067 C 275.246 25.014,275.921 24.913,276.333 24.841 L 277.083 24.711 276.417 24.709 C 276.050 24.707,275.375 24.809,274.917 24.934 M81.417 25.333 C 81.915 25.547,82.331 25.547,82.000 25.333 C 81.862 25.244,81.600 25.176,81.417 25.181 L 81.083 25.190 81.417 25.333 M272.250 25.333 C 271.794 25.529,272.555 25.529,273.167 25.333 C 273.573 25.203,273.571 25.200,273.083 25.195 C 272.808 25.192,272.433 25.255,272.250 25.333 M83.083 25.667 C 83.542 25.864,83.705 25.864,83.583 25.667 C 83.527 25.575,83.316 25.505,83.115 25.512 C 82.763 25.523,82.762 25.529,83.083 25.667 M269.917 25.667 L 269.583 25.810 269.917 25.802 C 270.100 25.797,270.475 25.737,270.750 25.667 L 271.250 25.539 270.750 25.531 C 270.475 25.527,270.100 25.588,269.917 25.667 M84.181 25.893 C 84.219 25.925,84.512 26.000,84.833 26.059 C 85.244 26.134,85.343 26.118,85.167 26.002 C 84.941 25.854,84.015 25.751,84.181 25.893 M267.583 26.008 C 267.359 26.111,267.522 26.127,268.083 26.059 C 268.542 26.003,268.948 25.929,268.986 25.895 C 269.132 25.765,267.900 25.864,267.583 26.008 M85.847 26.228 C 85.885 26.262,86.217 26.335,86.583 26.391 C 87.048 26.461,87.149 26.446,86.917 26.341 C 86.597 26.196,85.704 26.102,85.847 26.228 M265.083 26.337 C 264.872 26.430,265.115 26.447,265.750 26.385 C 266.300 26.331,266.781 26.260,266.819 26.227 C 266.967 26.099,265.399 26.198,265.083 26.337 M87.347 26.560 C 87.385 26.593,87.792 26.663,88.250 26.716 C 88.786 26.778,88.964 26.761,88.750 26.668 C 88.432 26.530,87.203 26.435,87.347 26.560 M262.750 26.668 C 262.544 26.757,262.829 26.775,263.500 26.716 C 264.096 26.663,264.615 26.593,264.653 26.560 C 264.800 26.433,263.066 26.531,262.750 26.668 M90.250 27.072 C 90.892 27.201,91.642 27.304,91.917 27.299 C 92.560 27.289,91.321 27.046,90.000 26.923 C 89.130 26.842,89.143 26.850,90.250 27.072 M260.804 26.919 C 260.757 26.966,260.163 27.074,259.484 27.161 L 258.250 27.318 259.417 27.232 C 260.058 27.185,260.996 27.087,261.500 27.014 L 262.417 26.880 261.653 26.857 C 261.233 26.844,260.851 26.872,260.804 26.919 M92.833 27.500 C 93.063 27.573,93.438 27.632,93.667 27.630 C 94.041 27.628,94.032 27.614,93.583 27.500 C 92.878 27.321,92.273 27.321,92.833 27.500 M256.750 27.500 L 256.250 27.627 256.750 27.627 C 257.025 27.627,257.475 27.570,257.750 27.500 L 258.250 27.373 257.750 27.373 C 257.475 27.373,257.025 27.430,256.750 27.500 M94.750 27.833 C 95.243 28.045,95.828 28.045,95.500 27.833 C 95.362 27.744,95.063 27.676,94.833 27.681 C 94.452 27.689,94.445 27.702,94.750 27.833 M254.333 27.833 C 254.026 28.032,254.468 28.032,255.250 27.833 L 255.750 27.706 255.167 27.689 C 254.846 27.679,254.471 27.744,254.333 27.833 M96.833 28.167 C 97.476 28.372,97.818 28.372,97.500 28.167 C 97.362 28.078,97.063 28.011,96.833 28.019 L 96.417 28.033 96.833 28.167 M251.667 28.176 C 251.489 28.298,251.658 28.315,252.250 28.236 C 252.708 28.174,253.115 28.096,253.153 28.062 C 253.320 27.913,251.891 28.022,251.667 28.176 M98.750 28.500 C 99.025 28.570,99.400 28.631,99.583 28.635 L 99.917 28.643 99.583 28.500 C 99.400 28.421,99.025 28.360,98.750 28.365 L 98.250 28.373 98.750 28.500 M249.083 28.506 C 248.866 28.603,249.068 28.620,249.667 28.555 C 250.171 28.500,250.615 28.428,250.653 28.394 C 250.800 28.265,249.399 28.365,249.083 28.506 M100.181 28.727 C 100.219 28.759,100.625 28.834,101.083 28.892 C 101.652 28.964,101.837 28.946,101.667 28.835 C 101.441 28.688,100.015 28.584,100.181 28.727 M246.417 28.837 C 246.205 28.930,246.448 28.947,247.083 28.885 C 247.633 28.831,248.115 28.760,248.153 28.727 C 248.300 28.599,246.732 28.698,246.417 28.837 M102.377 29.120 C 102.631 29.158,103.006 29.157,103.211 29.117 C 103.416 29.078,103.208 29.046,102.750 29.048 C 102.292 29.049,102.124 29.081,102.377 29.120 M243.900 29.102 C 243.798 29.144,243.123 29.247,242.400 29.331 L 241.083 29.483 242.500 29.386 C 243.279 29.332,244.404 29.235,245.000 29.171 L 246.083 29.052 245.083 29.039 C 244.533 29.032,244.001 29.060,243.900 29.102 M104.000 29.327 C 104.408 29.464,105.956 29.559,105.819 29.439 C 105.781 29.405,105.263 29.335,104.667 29.282 C 103.987 29.222,103.739 29.239,104.000 29.327 M106.583 29.667 C 106.858 29.737,107.308 29.794,107.583 29.794 L 108.083 29.794 107.583 29.667 C 107.308 29.597,106.858 29.539,106.583 29.539 L 106.083 29.539 106.583 29.667 M239.250 29.667 L 238.583 29.786 239.250 29.790 C 239.617 29.792,240.142 29.737,240.417 29.667 L 240.917 29.539 240.417 29.543 C 240.142 29.546,239.617 29.601,239.250 29.667 M108.681 29.895 C 108.719 29.929,109.125 30.001,109.583 30.054 C 110.145 30.118,110.281 30.104,110.000 30.008 C 109.584 29.867,108.549 29.778,108.681 29.895 M236.333 30.000 L 235.917 30.133 236.333 30.140 C 236.563 30.144,237.050 30.085,237.417 30.010 L 238.083 29.872 237.417 29.869 C 237.050 29.868,236.563 29.927,236.333 30.000 M111.181 30.229 C 111.219 30.263,111.625 30.341,112.083 30.402 C 112.675 30.481,112.844 30.464,112.667 30.343 C 112.442 30.189,111.013 30.079,111.181 30.229 M233.333 30.342 C 233.063 30.434,233.269 30.450,233.917 30.388 C 234.467 30.335,234.948 30.263,234.986 30.229 C 235.121 30.108,233.744 30.202,233.333 30.342 M113.681 30.561 C 113.719 30.594,114.162 30.667,114.667 30.722 C 115.265 30.787,115.468 30.770,115.250 30.672 C 114.934 30.531,113.533 30.432,113.681 30.561 M230.000 30.674 C 229.744 30.760,230.064 30.778,230.833 30.719 C 231.521 30.666,232.115 30.596,232.153 30.562 C 232.291 30.439,230.406 30.537,230.000 30.674 M116.181 30.896 C 116.219 30.931,116.850 31.001,117.583 31.052 C 118.401 31.109,118.723 31.093,118.417 31.009 C 117.915 30.872,116.051 30.778,116.181 30.896 M226.250 31.006 C 225.959 31.084,226.377 31.101,227.250 31.048 C 228.075 30.997,228.781 30.928,228.819 30.895 C 228.952 30.778,226.747 30.873,226.250 31.006 M119.347 31.227 C 119.385 31.260,120.167 31.328,121.083 31.378 C 122.193 31.438,122.527 31.421,122.083 31.327 C 121.431 31.189,119.210 31.108,119.347 31.227 M222.583 31.338 C 222.299 31.413,222.767 31.430,223.667 31.379 C 224.537 31.329,225.281 31.261,225.319 31.227 C 225.452 31.111,223.080 31.207,222.583 31.338 M124.083 31.675 C 124.817 31.742,125.942 31.841,126.583 31.894 L 127.750 31.989 126.333 31.759 C 125.554 31.633,124.429 31.534,123.833 31.540 L 122.750 31.552 124.083 31.675 M218.250 31.766 L 216.917 31.986 218.167 31.889 C 218.854 31.836,219.979 31.738,220.667 31.671 L 221.917 31.550 220.750 31.549 C 220.108 31.548,218.983 31.646,218.250 31.766 M129.333 32.175 C 129.746 32.249,130.271 32.307,130.500 32.304 L 130.917 32.300 130.500 32.167 C 130.271 32.093,129.746 32.035,129.333 32.037 L 128.583 32.042 129.333 32.175 M213.000 32.167 L 212.417 32.289 213.083 32.297 C 213.450 32.301,214.125 32.246,214.583 32.174 L 215.417 32.045 214.500 32.044 C 213.996 32.044,213.321 32.099,213.000 32.167 M133.667 32.507 C 134.171 32.577,134.846 32.632,135.167 32.630 L 135.750 32.627 135.250 32.500 C 134.975 32.430,134.300 32.374,133.750 32.377 L 132.750 32.380 133.667 32.507 M207.917 32.500 C 207.209 32.680,208.382 32.685,209.667 32.507 L 210.583 32.380 209.500 32.377 C 208.904 32.374,208.192 32.430,207.917 32.500 M137.181 32.728 C 137.219 32.761,138.037 32.830,139.000 32.880 C 139.985 32.931,140.531 32.913,140.250 32.839 C 139.756 32.708,137.046 32.610,137.181 32.728 M202.917 32.839 C 202.550 32.908,203.112 32.925,204.167 32.877 C 205.221 32.828,206.115 32.761,206.153 32.728 C 206.277 32.618,203.602 32.710,202.917 32.839 M141.847 33.061 C 141.885 33.094,142.892 33.162,144.083 33.211 C 145.453 33.267,145.943 33.249,145.417 33.164 C 144.582 33.029,141.716 32.946,141.847 33.061 M195.167 33.168 C 194.662 33.231,195.675 33.246,197.417 33.201 C 199.158 33.157,200.615 33.093,200.653 33.060 C 200.772 32.957,196.132 33.048,195.167 33.168 M147.347 33.394 C 147.385 33.427,149.292 33.490,151.583 33.535 C 153.957 33.581,155.105 33.563,154.250 33.493 C 152.705 33.365,147.224 33.286,147.347 33.394 M186.083 33.507 C 185.075 33.566,186.275 33.579,188.750 33.537 C 191.225 33.494,193.281 33.431,193.319 33.396 C 193.422 33.303,188.205 33.383,186.083 33.507 M164.757 33.826 C 169.619 33.878,175.882 33.881,178.674 33.832 C 181.470 33.783,177.498 33.740,169.833 33.737 C 157.573 33.731,156.969 33.742,164.757 33.826 " stroke="none" fill="#696969" fill-rule="evenodd"></path><path id="path4" d="M136.375 32.782 C 136.535 32.823,136.798 32.823,136.958 32.782 C 137.119 32.740,136.987 32.705,136.667 32.705 C 136.346 32.705,136.215 32.740,136.375 32.782 M206.375 32.782 C 206.535 32.823,206.798 32.823,206.958 32.782 C 207.119 32.740,206.987 32.705,206.667 32.705 C 206.346 32.705,206.215 32.740,206.375 32.782 M141.042 33.115 C 141.202 33.157,141.465 33.157,141.625 33.115 C 141.785 33.073,141.654 33.039,141.333 33.039 C 141.012 33.039,140.881 33.073,141.042 33.115 M200.958 33.118 C 201.165 33.157,201.502 33.157,201.708 33.118 C 201.915 33.078,201.746 33.045,201.333 33.045 C 200.921 33.045,200.752 33.078,200.958 33.118 M146.211 33.453 C 146.464 33.491,146.839 33.490,147.044 33.451 C 147.249 33.411,147.042 33.380,146.583 33.381 C 146.125 33.382,145.957 33.415,146.211 33.453 M193.627 33.451 C 193.834 33.491,194.134 33.490,194.294 33.448 C 194.453 33.406,194.283 33.374,193.917 33.375 C 193.550 33.377,193.420 33.411,193.627 33.451 M152.042 33.615 C 152.202 33.657,152.465 33.657,152.625 33.615 C 152.785 33.573,152.654 33.539,152.333 33.539 C 152.012 33.539,151.881 33.573,152.042 33.615 M188.542 33.615 C 188.702 33.657,188.965 33.657,189.125 33.615 C 189.285 33.573,189.154 33.539,188.833 33.539 C 188.512 33.539,188.381 33.573,188.542 33.615 M154.958 33.784 C 155.165 33.824,155.502 33.824,155.708 33.784 C 155.915 33.745,155.746 33.712,155.333 33.712 C 154.921 33.712,154.752 33.745,154.958 33.784 M184.128 33.787 C 184.428 33.825,184.878 33.824,185.128 33.786 C 185.378 33.748,185.133 33.717,184.583 33.718 C 184.033 33.719,183.828 33.750,184.128 33.787 M165.699 33.958 C 166.679 33.987,168.329 33.987,169.366 33.958 C 170.402 33.929,169.600 33.904,167.583 33.904 C 165.567 33.904,164.719 33.928,165.699 33.958 M175.461 33.954 C 175.761 33.991,176.211 33.990,176.461 33.952 C 176.712 33.914,176.467 33.884,175.917 33.885 C 175.367 33.886,175.162 33.917,175.461 33.954 " stroke="none" fill="#8c8c8c" fill-rule="evenodd"></path></g></svg>